<svg width="30" height="30" viewBox="0 0 30 30" fill="none" xmlns="http://www.w3.org/2000/svg">
<path d="M25.3125 12.5C26.5212 12.5 27.5 13.48 27.5 14.6875V18.75C27.4999 19.4066 27.3705 20.0568 27.1192 20.6634C26.8678 21.27 26.4994 21.8211 26.0351 22.2854C25.5707 22.7496 25.0195 23.1178 24.4128 23.369C23.8062 23.6202 23.156 23.7495 22.4994 23.7494C21.8428 23.7493 21.1926 23.6199 20.586 23.3685C19.9794 23.1172 19.4283 22.7488 18.964 22.2845C18.4998 21.8201 18.1316 21.2689 17.8804 20.6622C17.6292 20.0556 17.4999 19.4054 17.5 18.7487V14.6875C17.5 14.1383 17.7067 13.6092 18.0788 13.2054C18.451 12.8015 18.9614 12.5524 19.5088 12.5075L25.3125 12.5Z" fill="url(#paint0_linear_127_1968)"/>
<path d="M25.3125 12.5C26.5212 12.5 27.5 13.48 27.5 14.6875V18.75C27.4999 19.4066 27.3705 20.0568 27.1192 20.6634C26.8678 21.27 26.4994 21.8211 26.0351 22.2854C25.5707 22.7496 25.0195 23.1178 24.4128 23.369C23.8062 23.6202 23.156 23.7495 22.4994 23.7494C21.8428 23.7493 21.1926 23.6199 20.586 23.3685C19.9794 23.1172 19.4283 22.7488 18.964 22.2845C18.4998 21.8201 18.1316 21.2689 17.8804 20.6622C17.6292 20.0556 17.4999 19.4054 17.5 18.7487V14.6875C17.5 14.1383 17.7067 13.6092 18.0788 13.2054C18.451 12.8015 18.9614 12.5524 19.5088 12.5075L25.3125 12.5Z" fill="url(#paint1_radial_127_1968)" fill-opacity="0.5"/>
<path d="M10.3125 12.5C11.5212 12.5 12.5 13.48 12.5 14.6875V18.75C12.4999 19.4066 12.3705 20.0568 12.1192 20.6634C11.8678 21.27 11.4994 21.8211 11.0351 22.2854C10.5707 22.7496 10.0195 23.1178 9.41284 23.369C8.80618 23.6202 8.15598 23.7495 7.49937 23.7494C6.84277 23.7493 6.1926 23.6199 5.58601 23.3685C4.97941 23.1172 4.42826 22.7488 3.96402 22.2845C3.02646 21.3467 2.49983 20.0748 2.5 18.7487V14.6875C2.50002 14.1385 2.70646 13.6096 3.07835 13.2058C3.45024 12.8019 3.96037 12.5527 4.5075 12.5075L10.3125 12.5Z" fill="url(#paint2_linear_127_1968)"/>
<path d="M10.3125 12.5C11.5212 12.5 12.5 13.48 12.5 14.6875V18.75C12.4999 19.4066 12.3705 20.0568 12.1192 20.6634C11.8678 21.27 11.4994 21.8211 11.0351 22.2854C10.5707 22.7496 10.0195 23.1178 9.41284 23.369C8.80618 23.6202 8.15598 23.7495 7.49937 23.7494C6.84277 23.7493 6.1926 23.6199 5.58601 23.3685C4.97941 23.1172 4.42826 22.7488 3.96402 22.2845C3.02646 21.3467 2.49983 20.0748 2.5 18.7487V14.6875C2.50002 14.1385 2.70646 13.6096 3.07835 13.2058C3.45024 12.8019 3.96037 12.5527 4.5075 12.5075L10.3125 12.5Z" fill="url(#paint3_radial_127_1968)" fill-opacity="0.5"/>
<path d="M18.4425 12.5C19.65 12.5 20.63 13.48 20.63 14.6875V20.6238C20.63 22.1159 20.0372 23.547 18.9821 24.6021C17.927 25.6572 16.4959 26.25 15.0038 26.25C13.5116 26.25 12.0805 25.6572 11.0254 24.6021C9.97027 23.547 9.3775 22.1159 9.3775 20.6238V14.6875C9.3775 13.48 10.3563 12.5 11.565 12.5H18.4425Z" fill="url(#paint4_linear_127_1968)"/>
<path d="M18.4425 12.5C19.65 12.5 20.63 13.48 20.63 14.6875V20.6238C20.63 22.1159 20.0372 23.547 18.9821 24.6021C17.927 25.6572 16.4959 26.25 15.0038 26.25C13.5116 26.25 12.0805 25.6572 11.0254 24.6021C9.97027 23.547 9.3775 22.1159 9.3775 20.6238V14.6875C9.3775 13.48 10.3563 12.5 11.565 12.5H18.4425Z" fill="url(#paint5_linear_127_1968)"/>
<path d="M23.125 5C23.9538 5 24.7487 5.32924 25.3347 5.91529C25.9208 6.50134 26.25 7.2962 26.25 8.125C26.25 8.9538 25.9208 9.74866 25.3347 10.3347C24.7487 10.9208 23.9538 11.25 23.125 11.25C22.2962 11.25 21.5013 10.9208 20.9153 10.3347C20.3292 9.74866 20 8.9538 20 8.125C20 7.2962 20.3292 6.50134 20.9153 5.91529C21.5013 5.32924 22.2962 5 23.125 5Z" fill="url(#paint6_linear_127_1968)"/>
<path d="M6.875 5C7.7038 5 8.49866 5.32924 9.08471 5.91529C9.67076 6.50134 10 7.2962 10 8.125C10 8.9538 9.67076 9.74866 9.08471 10.3347C8.49866 10.9208 7.7038 11.25 6.875 11.25C6.0462 11.25 5.25134 10.9208 4.66529 10.3347C4.07924 9.74866 3.75 8.9538 3.75 8.125C3.75 7.2962 4.07924 6.50134 4.66529 5.91529C5.25134 5.32924 6.0462 5 6.875 5Z" fill="url(#paint7_linear_127_1968)"/>
<path d="M15 3.75C15.9946 3.75 16.9484 4.14509 17.6517 4.84835C18.3549 5.55161 18.75 6.50544 18.75 7.5C18.75 8.49456 18.3549 9.44839 17.6517 10.1517C16.9484 10.8549 15.9946 11.25 15 11.25C14.0054 11.25 13.0516 10.8549 12.3483 10.1517C11.6451 9.44839 11.25 8.49456 11.25 7.5C11.25 6.50544 11.6451 5.55161 12.3483 4.84835C13.0516 4.14509 14.0054 3.75 15 3.75Z" fill="url(#paint8_linear_127_1968)"/>
<defs>
<linearGradient id="paint0_linear_127_1968" x1="19.8775" y1="13.995" x2="25.8788" y2="22.5137" gradientUnits="userSpaceOnUse">
<stop offset="0.125" stop-color="#7A41DC"/>
<stop offset="1" stop-color="#5B2AB5"/>
</linearGradient>
<radialGradient id="paint1_radial_127_1968" cx="0" cy="0" r="1" gradientUnits="userSpaceOnUse" gradientTransform="translate(15.9288 17.8625) scale(8.04778 15.3584)">
<stop offset="0.433" stop-color="#3B148A"/>
<stop offset="1" stop-color="#3B148A" stop-opacity="0"/>
</radialGradient>
<linearGradient id="paint2_linear_127_1968" x1="4.87875" y1="13.995" x2="10.8788" y2="22.5137" gradientUnits="userSpaceOnUse">
<stop offset="0.125" stop-color="#9C6CFE"/>
<stop offset="1" stop-color="#7A41DC"/>
</linearGradient>
<radialGradient id="paint3_radial_127_1968" cx="0" cy="0" r="1" gradientUnits="userSpaceOnUse" gradientTransform="translate(15.74 17.8625) rotate(180) scale(8.90621 16.9966)">
<stop offset="0.433" stop-color="#3B148A"/>
<stop offset="1" stop-color="#3B148A" stop-opacity="0"/>
</radialGradient>
<linearGradient id="paint4_linear_127_1968" x1="12.0538" y1="14.3275" x2="19.5713" y2="24.1525" gradientUnits="userSpaceOnUse">
<stop offset="0.125" stop-color="#BD96FF"/>
<stop offset="1" stop-color="#9C6CFE"/>
</linearGradient>
<linearGradient id="paint5_linear_127_1968" x1="15.0038" y1="10.8625" x2="26.4138" y2="28.31" gradientUnits="userSpaceOnUse">
<stop stop-color="#885EDB" stop-opacity="0"/>
<stop offset="1" stop-color="#E362F8"/>
</linearGradient>
<linearGradient id="paint6_linear_127_1968" x1="21.4863" y1="5.83125" x2="24.6713" y2="10.9175" gradientUnits="userSpaceOnUse">
<stop offset="0.125" stop-color="#7A41DC"/>
<stop offset="1" stop-color="#5B2AB5"/>
</linearGradient>
<linearGradient id="paint7_linear_127_1968" x1="5.23625" y1="5.83125" x2="8.42125" y2="10.9175" gradientUnits="userSpaceOnUse">
<stop offset="0.125" stop-color="#9C6CFE"/>
<stop offset="1" stop-color="#7A41DC"/>
</linearGradient>
<linearGradient id="paint8_linear_127_1968" x1="13.0338" y1="4.7475" x2="16.8563" y2="10.85" gradientUnits="userSpaceOnUse">
<stop offset="0.125" stop-color="#BD96FF"/>
<stop offset="1" stop-color="#9C6CFE"/>
</linearGradient>
</defs>
</svg>
