<svg width="60" height="40" viewBox="0 0 60 40" fill="none" xmlns="http://www.w3.org/2000/svg">
<path d="M59.9989 35.2853C59.9712 34.6184 59.5157 34.0494 58.8658 33.8691C54.2617 32.5908 51.4902 30.8063 49.976 29.5342C49.457 29.0981 48.9914 28.645 48.5924 28.1879L48.083 27.6044L48.5092 26.9591L55.2935 16.6851C55.672 16.1119 55.6256 15.3754 55.1779 14.8529C54.8816 14.5069 54.4486 14.3087 53.9898 14.3087C53.7751 14.3087 53.5659 14.352 53.3676 14.4375C49.6553 16.0397 45.1065 16.8869 40.2125 16.8872C39.3612 16.8872 38.4909 16.861 37.6264 16.8096L36.8132 16.7612L36.6682 15.9693C35.9027 11.7832 33.9431 8.59929 30.8439 6.50587C27.6828 4.37071 23.2493 3.28815 17.6666 3.28815C14.4632 3.28815 11.5364 4.03419 9.64548 4.65986L8.38766 5.07603L8.28241 3.76963C8.11235 1.65573 6.29612 0 4.14782 0C1.86081 0 0 1.83833 0 4.0977C0 5.47018 0.697351 6.74815 1.86548 7.51621L2.23515 7.75926L2.31215 8.19131L7.7463 38.636C7.87774 39.3718 8.52169 39.9058 9.27789 39.9058H11.3518C11.8127 39.9058 12.2469 39.7057 12.543 39.3569C12.8396 39.0078 12.9635 38.5507 12.8834 38.1023L11.4417 30.0247L11.3106 29.2899L11.9781 28.9411C12.7784 28.5231 17.0449 26.4381 22.478 26.4381C23.2589 26.4381 24.0402 26.4819 24.8003 26.5682L25.5689 26.6556L25.7032 27.4083L26.9911 34.6238C27.2579 35.944 28.1937 36.7764 28.9821 37.1152C29.6755 37.4141 35.9017 40 43.6788 40C49.4528 40 54.4484 38.4567 58.9869 36.7889C59.6199 36.5561 60.0266 35.9517 59.9989 35.2853Z" fill="#283841"/>
<path fill-rule="evenodd" clip-rule="evenodd" d="M18.7806 17.3967C24.6786 17.0106 32.1518 17.9481 37.4453 24.073C37.9129 24.6141 37.5883 24.8899 38.0193 25.5146V26.3423L37.244 26.8643C32.4866 19.9692 25.0534 18.8444 18.9077 19.2462C16.196 19.4416 13.8133 20.0609 12.1061 20.6336C11.2536 20.9196 10.5736 21.1926 10.11 21.3925C9.87835 21.4924 9.70102 21.5739 9.58356 21.6294C9.52484 21.6572 9.48111 21.6784 9.45307 21.6922C9.43905 21.6991 9.42895 21.7042 9.42287 21.7072L9.4164 21.7105C9.4164 21.7105 9.41673 21.7103 8.98586 20.887C8.55499 20.0637 8.55542 20.0634 8.55542 20.0634L8.55729 20.0625L8.56114 20.0605L8.57347 20.0543C8.58374 20.0492 8.59808 20.042 8.61642 20.033C8.6531 20.015 8.70575 19.9894 8.7737 19.9573C8.90958 19.8931 9.10671 19.8026 9.35953 19.6936C9.86497 19.4757 10.5942 19.1832 11.5027 18.8784C13.3167 18.2698 15.8612 17.6067 18.7745 17.3972L18.7775 17.3969L18.7806 17.3967Z" fill="#283841"/>
<path fill-rule="evenodd" clip-rule="evenodd" d="M18.0991 10.6465C24.4913 10.4593 32.5051 11.5823 36.7117 18.5463C37.1702 19.3053 36.5486 19.685 36.9095 20.5886L37.0717 21.3774L36.1991 21.7177C32.9999 13.71 25.1118 12.296 18.1573 12.4993C15.3689 12.5969 12.8467 13.1955 11.0155 13.7742C10.1017 14.063 9.36544 14.3451 8.8607 14.5535C8.60846 14.6576 8.41444 14.7432 8.28542 14.8018C8.22092 14.8311 8.1727 14.8536 8.14161 14.8683C8.12606 14.8757 8.1148 14.8811 8.10793 14.8844L8.10094 14.8878C8.10094 14.8878 8.10061 14.888 7.68266 14.0582C7.2647 13.2284 7.26514 13.2282 7.26514 13.2282L7.26708 13.2272L7.27115 13.2252L7.28438 13.2188C7.29544 13.2135 7.31097 13.206 7.33085 13.1966C7.37062 13.1778 7.42783 13.1511 7.50165 13.1176C7.64925 13.0505 7.86336 12.9562 8.13713 12.8431C8.68439 12.6172 9.47162 12.3159 10.4438 12.0086C12.3841 11.3955 15.083 10.7517 18.0937 10.6466L18.0964 10.6465H18.0991Z" fill="#283841"/>
<path d="M5.612 6.21108C6.29302 5.74957 6.73994 4.97511 6.73994 4.09769C6.73994 2.68321 5.57933 1.53662 4.14756 1.53662C2.71579 1.53662 1.55518 2.68321 1.55518 4.09769C1.55518 5.3293 2.43529 6.35808 3.60808 6.60318L9.27789 38.3688H11.3518L5.612 6.21108Z" fill="white"/>
<path d="M8.33631 12.7617L7.34888 7.22944C7.34888 7.22944 12.079 4.82434 17.6661 4.82434C24.925 4.82434 33.4475 6.50542 35.1673 16.4126C35.1682 16.4183 35.1692 16.424 35.1702 16.4297C30.7383 11.3484 23.7781 10.4803 18.0981 10.6466L18.0955 10.6467L18.0928 10.6468C15.0821 10.7518 12.3832 11.3956 10.4429 12.0088C9.5835 12.2803 8.86865 12.5473 8.33631 12.7617Z" fill="white"/>
<path d="M8.67017 14.6329L9.55828 19.6087C10.0489 19.4025 10.7066 19.1452 11.5016 18.8785C13.3156 18.27 15.8601 17.6068 18.7734 17.3973L18.7764 17.3971L18.7795 17.3969C24.2678 17.0376 31.1202 17.8244 36.3109 22.8708C36.2194 22.3615 36.1266 21.8435 36.0331 21.3205C32.7345 13.6632 24.994 12.2996 18.1562 12.4994C15.3678 12.597 12.8456 13.1956 11.0144 13.7743C10.1006 14.0631 9.36437 14.3452 8.85963 14.5536C8.79228 14.5814 8.72909 14.6079 8.67017 14.6329Z" fill="white"/>
<path d="M36.9592 26.4643C32.1937 19.9257 24.9315 18.8524 18.9067 19.2463C16.195 19.4417 13.8123 20.061 12.1051 20.6338C11.2526 20.9198 10.5726 21.1928 10.109 21.3927C10.031 21.4263 9.95905 21.4579 9.89355 21.4871L11.0054 27.7159C11.0054 27.7159 25.523 19.4239 37.8257 31.3073C37.6659 30.3734 37.3575 28.6675 36.9774 26.5647C36.9714 26.5313 36.9653 26.4979 36.9592 26.4643Z" fill="white"/>
<path d="M29.6262 35.7161C29.6262 35.7161 35.8487 38.4631 43.679 38.4631C48.9556 38.4631 53.6079 37.1257 58.4447 35.3483C54.8511 34.3508 52.2615 33.0514 50.4204 31.8002C46.823 32.592 43.1833 32.7427 39.5519 32.3186C39.6303 32.7702 39.7082 33.2219 39.7855 33.6737L29.6262 35.7161Z" fill="white"/>
<path d="M39.2286 30.4713C42.3474 30.8868 45.4635 30.856 48.5462 30.3375C46.8102 28.7708 46.2605 27.5515 46.2605 27.5515L48.2444 24.5471C44.2363 25.488 40.8195 25.3947 38.2993 25.2685C38.6114 27.0023 38.9228 28.7363 39.2286 30.4713Z" fill="white"/>
<path d="M37.9731 23.4564C40.9025 23.609 44.9374 23.7812 49.7422 22.2786L53.99 15.8456C48.7912 18.0893 42.6838 18.7073 37.0552 18.3127C37.3572 20.0279 37.6647 21.7423 37.9731 23.4564Z" fill="white"/>
</svg>
