<svg width="28" height="28" viewBox="0 0 28 28" fill="none" xmlns="http://www.w3.org/2000/svg">
<path d="M15.2 2.40011C15.2 2.00689 15.1034 1.61968 14.9187 1.27255C14.734 0.925413 14.4668 0.628985 14.1406 0.409334C13.8145 0.189682 13.4393 0.0535365 13.0482 0.0128696C12.6571 -0.0277973 12.262 0.0282608 11.8976 0.176113L2.496 3.99211C1.75825 4.29147 1.12663 4.80418 0.681968 5.46461C0.237311 6.12504 -0.000143509 6.90314 6.50689e-08 7.69931V16.8353C1.80658e-05 17.2295 0.0971501 17.6177 0.282811 17.9655C0.468472 18.3132 0.736945 18.6099 1.0645 18.8293C1.39206 19.0487 1.76861 19.184 2.16088 19.2233C2.55315 19.2625 2.94905 19.2046 3.3136 19.0545L13.7136 14.7713C14.1533 14.5903 14.5294 14.2827 14.794 13.8876C15.0587 13.4925 15.2 13.0277 15.2 12.5521V2.40011Z" fill="url(#paint0_linear_127_1973)"/>
<path d="M20 5.60006C20 5.20684 19.9034 4.81963 19.7187 4.4725C19.534 4.12536 19.2668 3.82894 18.9406 3.60928C18.6144 3.38963 18.2393 3.25349 17.8482 3.21282C17.4571 3.17215 17.062 3.22821 16.6976 3.37606L6.79679 7.39526C6.20674 7.63469 5.70154 8.04471 5.34583 8.57287C4.99012 9.10102 4.80006 9.72329 4.79999 10.3601V20.0353C4.80001 20.4295 4.89714 20.8176 5.0828 21.1654C5.26846 21.5132 5.53693 21.8099 5.86449 22.0293C6.19204 22.2486 6.5686 22.3839 6.96087 22.4232C7.35313 22.4625 7.74904 22.4045 8.11359 22.2545L18.5136 17.9713C18.9533 17.7902 19.3294 17.4827 19.594 17.0875C19.8587 16.6924 20 16.2276 20 15.7521V5.60006Z" fill="url(#paint1_linear_127_1973)"/>
<path d="M25.6 8.80176C25.6001 8.40834 25.5035 8.02091 25.3187 7.6736C25.1339 7.32628 24.8666 7.02972 24.5402 6.81003C24.2138 6.59034 23.8384 6.45426 23.4471 6.41375C23.0558 6.37325 22.6605 6.42957 22.296 6.57776L12.696 10.477C12.2537 10.6568 11.8751 10.9645 11.6086 11.3607C11.3421 11.7568 11.1999 12.2235 11.2 12.701V23.2466C11.1999 23.64 11.2965 24.0274 11.4813 24.3747C11.6661 24.722 11.9335 25.0186 12.2598 25.2383C12.5862 25.458 12.9616 25.5941 13.3529 25.6346C13.7443 25.6751 14.1396 25.6188 14.504 25.4706L24.104 21.5714C24.5463 21.3915 24.9249 21.0838 25.1914 20.6877C25.4579 20.2915 25.6002 19.8248 25.6 19.3474V8.80176Z" fill="url(#paint2_linear_127_1973)"/>
<path d="M27.2 23.2241C27.2 25.2161 25.6 27.2241 21.6 27.2241C17.6 27.2241 16 25.2241 16 23.2241C16 22.5876 16.2529 21.9771 16.7029 21.527C17.153 21.077 17.7635 20.8241 18.4 20.8241H24.8C25.4365 20.8241 26.047 21.077 26.4971 21.527C26.9471 21.9771 27.2 22.5876 27.2 23.2241Z" fill="url(#paint3_linear_127_1973)"/>
<path d="M24.8 16.0241C24.8 16.8728 24.4629 17.6867 23.8628 18.2868C23.2626 18.887 22.4487 19.2241 21.6 19.2241C20.7513 19.2241 19.9374 18.887 19.3373 18.2868C18.7372 17.6867 18.4 16.8728 18.4 16.0241C18.4 15.1754 18.7372 14.3615 19.3373 13.7614C19.9374 13.1612 20.7513 12.8241 21.6 12.8241C22.4487 12.8241 23.2626 13.1612 23.8628 13.7614C24.4629 14.3615 24.8 15.1754 24.8 16.0241Z" fill="url(#paint4_linear_127_1973)"/>
<defs>
<linearGradient id="paint0_linear_127_1973" x1="0.5424" y1="3.60491" x2="13.576" y2="14.3025" gradientUnits="userSpaceOnUse">
<stop stop-color="#0078D4"/>
<stop offset="1" stop-color="#1B44B1"/>
</linearGradient>
<linearGradient id="paint1_linear_127_1973" x1="5.34239" y1="6.80486" x2="18.376" y2="17.5025" gradientUnits="userSpaceOnUse">
<stop stop-color="#0FAFFF"/>
<stop offset="1" stop-color="#2764E7"/>
</linearGradient>
<linearGradient id="paint2_linear_127_1973" x1="11.7136" y1="10.0082" x2="24.5984" y2="20.021" gradientUnits="userSpaceOnUse">
<stop stop-color="#6CE0FF"/>
<stop offset="1" stop-color="#58AAFE"/>
</linearGradient>
<linearGradient id="paint3_linear_127_1973" x1="18.664" y1="21.6753" x2="20.9632" y2="28.1025" gradientUnits="userSpaceOnUse">
<stop offset="0.125" stop-color="#9C6CFE"/>
<stop offset="1" stop-color="#7A41DC"/>
</linearGradient>
<linearGradient id="paint4_linear_127_1973" x1="19.9216" y1="13.6753" x2="23.184" y2="18.8833" gradientUnits="userSpaceOnUse">
<stop offset="0.125" stop-color="#9C6CFE"/>
<stop offset="1" stop-color="#7A41DC"/>
</linearGradient>
</defs>
</svg>
